<?xml version="1.0" encoding="UTF-8" standalone="no"?><!DOCTYPE svg PUBLIC "-//W3C//DTD SVG 1.1//EN" "http://www.w3.org/Graphics/SVG/1.1/DTD/svg11.dtd"><svg width="100%" height="100%" viewBox="0 0 67 67" version="1.1" xmlns="http://www.w3.org/2000/svg" xmlns:xlink="http://www.w3.org/1999/xlink" xml:space="preserve" xmlns:serif="http://www.serif.com/" style="fill-rule:evenodd;clip-rule:evenodd;stroke-linejoin:round;stroke-miterlimit:2;"><g id="audio_stream_plus_2d_res"><path d="M50,8.333c-2.286,0 -4.167,1.881 -4.167,4.167c0,2.286 1.881,4.167 4.167,4.167c-18.286,0 -33.333,15.047 -33.333,33.333c-0,-2.286 -1.881,-4.167 -4.167,-4.167c-2.286,0 -4.167,1.881 -4.167,4.167c-0,-22.858 18.809,-41.667 41.667,-41.667Zm0,16.667c-2.286,0 -4.167,1.881 -4.167,4.167c0,2.286 1.881,4.167 4.167,4.167c-9.143,0 -16.667,7.524 -16.667,16.667c0,-2.286 -1.881,-4.167 -4.167,-4.167c-2.286,0 -4.167,1.881 -4.167,4.167c0,-13.715 11.285,-25 25,-25Zm0,16.667c-4.572,0 -8.333,3.762 -8.333,8.333c0,4.572 3.762,8.333 8.333,8.333c4.572,0 8.333,-3.762 8.333,-8.333c0,-4.572 -3.762,-8.333 -8.333,-8.333Z" style="fill:#8da5f3;fill-rule:nonzero;"/></g></svg>