<?xml version="1.0" encoding="UTF-8" standalone="no"?><!DOCTYPE svg PUBLIC "-//W3C//DTD SVG 1.1//EN" "http://www.w3.org/Graphics/SVG/1.1/DTD/svg11.dtd"><svg width="100%" height="100%" viewBox="0 0 67 67" version="1.1" xmlns="http://www.w3.org/2000/svg" xmlns:xlink="http://www.w3.org/1999/xlink" xml:space="preserve" xmlns:serif="http://www.serif.com/" style="fill-rule:evenodd;clip-rule:evenodd;stroke-linecap:round;stroke-linejoin:round;"><g id="audio_stream_plus_2d"><path d="M34.778,4.167c-0.846,-0.086 -1.687,0.222 -2.278,0.833l-15.833,15.833l-7.833,0c-2.583,0 -4.667,1.861 -4.667,4.167l0,16.667c0,2.306 2.083,4.167 4.667,4.167l7.833,0l15.833,15.833c1.833,1.861 5,0.556 5,-2.056l0,-52.5c0.004,-1.535 -1.192,-2.829 -2.722,-2.944" style="fill:#8da5f3;fill-rule:nonzero;"/><path d="M43.75,18.75c12.5,14.583 0,29.167 0,29.167m8.333,-37.5c18.75,22.917 0,45.833 0,45.833" style="fill:none;fill-rule:nonzero;stroke:#8da5f3;stroke-width:4.58px;"/></g></svg>