<?xml version="1.0" encoding="UTF-8" standalone="no"?><!DOCTYPE svg PUBLIC "-//W3C//DTD SVG 1.1//EN" "http://www.w3.org/Graphics/SVG/1.1/DTD/svg11.dtd"><svg width="100%" height="100%" viewBox="0 0 67 67" version="1.1" xmlns="http://www.w3.org/2000/svg" xmlns:xlink="http://www.w3.org/1999/xlink" xml:space="preserve" xmlns:serif="http://www.serif.com/" style="fill-rule:evenodd;clip-rule:evenodd;stroke-linecap:round;stroke-linejoin:round;"><g id="audio_manager"><path d="M35.305,10.194c-0.671,-0.068 -1.338,0.176 -1.806,0.661l-12.555,12.555l-6.212,0c-2.049,0 -3.701,1.476 -3.701,3.304l0,13.216c0,1.828 1.652,3.304 3.701,3.304l6.212,0l12.555,12.555c1.454,1.476 3.965,0.441 3.965,-1.63l0,-41.631c0.003,-1.217 -0.945,-2.243 -2.159,-2.335" style="fill:url(#_Linear1);fill-rule:nonzero;"/><path d="M42.419,21.758c9.912,11.564 0,23.128 0,23.128m6.608,-29.736c14.868,18.172 0,36.344 0,36.344" style="fill:none;fill-rule:nonzero;stroke:url(#_Linear2);stroke-width:3.63px;"/><circle cx="33.333" cy="33.333" r="30.775" style="fill:none;stroke:url(#_Linear3);stroke-width:3.91px;stroke-miterlimit:1.5;"/></g><defs><linearGradient id="_Linear1" x1="0" y1="0" x2="1" y2="0" gradientUnits="userSpaceOnUse" gradientTransform="matrix(26.432367,0,0,46.300923,11.031032,33.333333)"><stop offset="0" style="stop-color:#ffff14;stop-opacity:1"/><stop offset="1" style="stop-color:#ff3900;stop-opacity:1"/></linearGradient><linearGradient id="_Linear2" x1="0" y1="0" x2="1" y2="0" gradientUnits="userSpaceOnUse" gradientTransform="matrix(13.216179,0,0,36.344491,42.419456,33.322415)"><stop offset="0" style="stop-color:#ffff12;stop-opacity:1"/><stop offset="1" style="stop-color:#e82e00;stop-opacity:1"/></linearGradient><linearGradient id="_Linear3" x1="0" y1="0" x2="1" y2="0" gradientUnits="userSpaceOnUse" gradientTransform="matrix(67.830646,0,0,65.685244,-3.722273,31.265751)"><stop offset="0" style="stop-color:#ff0;stop-opacity:1"/><stop offset="1" style="stop-color:#ff401f;stop-opacity:1"/></linearGradient></defs></svg>