<?xml version="1.0" encoding="UTF-8" standalone="no"?><!DOCTYPE svg PUBLIC "-//W3C//DTD SVG 1.1//EN" "http://www.w3.org/Graphics/SVG/1.1/DTD/svg11.dtd"><svg width="100%" height="100%" viewBox="0 0 67 67" version="1.1" xmlns="http://www.w3.org/2000/svg" xmlns:xlink="http://www.w3.org/1999/xlink" xml:space="preserve" xmlns:serif="http://www.serif.com/" style="fill-rule:evenodd;clip-rule:evenodd;stroke-linecap:round;stroke-linejoin:round;"><g id="audio_stream_plus"><path d="M34.779,4.167c-0.846,-0.088 -1.688,0.221 -2.279,0.833l-15.833,15.833l-7.833,0c-2.583,0 -4.667,1.863 -4.667,4.167l0,16.667c0,2.304 2.083,4.167 4.667,4.167l7.833,0l15.833,15.833c1.833,1.862 5,0.554 5,-2.054l0,-52.5c0.004,-1.533 -1.192,-2.829 -2.721,-2.946" style="fill:#e0e0e0;fill-rule:nonzero;"/><path d="M43.75,18.75c12.5,14.583 0,29.167 0,29.167" style="fill:none;fill-rule:nonzero;stroke:#e0e0e0;stroke-width:5.13px;"/><path d="M52.083,10.417c18.75,22.917 0,45.833 0,45.833" style="fill:none;fill-rule:nonzero;stroke:#e0e0e0;stroke-width:5.13px;"/></g></svg>